<svg width="16" height="15" fill="none" xmlns="http://www.w3.org/2000/svg" viewBox="0 0 16 15"><path id="icon-heart-small" d="m7.999 13.5.05-.047c.554-.516 1.102-1.038 1.663-1.546.822-.741 1.656-1.468 2.479-2.206.55-.494 1.084-1.008 1.548-1.59a5.43 5.43 0 0 0 1.002-1.877c.137-.469.21-.95.239-1.437.022-.395.036-.791-.023-1.186-.113-.77-.425-1.447-.96-2.006-.634-.66-1.412-1.012-2.314-1.086a3.535 3.535 0 0 0-1.96.395c-.707.368-1.25.915-1.672 1.593L8 2.59l-.042-.062c-.19-.31-.405-.6-.663-.853C6.173.575 4.864.224 3.375.721c-1.392.466-2.316 1.77-2.371 3.297-.016.433.008.863.063 1.292.062.487.177.96.36 1.415.276.676.691 1.257 1.176 1.792.541.597 1.138 1.135 1.74 1.667 1.07.946 2.148 1.883 3.185 2.867.156.148.312.296.47.449Z" stroke="currentColor" stroke-miterlimit="10" stroke-linecap="round" fill="none"></path></svg>